<mxfile host="app.diagrams.net" modified="2020-11-26T13:05:59.976Z" agent="5.0 (Macintosh; Intel Mac OS X 10_15_6) AppleWebKit/537.36 (KHTML, like Gecko) Chrome/87.0.4280.67 Safari/537.36" etag="dMP40j4cv7TAMjM6OI4H" version="13.10.3" type="github">
  <diagram id="9BhJvG1YheT70fT9A_iJ" name="第 1 页">
    <mxGraphModel dx="1682" dy="428" grid="1" gridSize="10" guides="1" tooltips="1" connect="1" arrows="1" fold="1" page="1" pageScale="1" pageWidth="827" pageHeight="1169" math="0" shadow="0">
      <root>
        <mxCell id="0" />
        <mxCell id="1" parent="0" />
        <mxCell id="ku9lQlpiuaTnmv-eHWmi-1" value="读取" style="rounded=0;whiteSpace=wrap;html=1;" vertex="1" parent="1">
          <mxGeometry x="30" y="10" width="400" height="310" as="geometry" />
        </mxCell>
        <mxCell id="ku9lQlpiuaTnmv-eHWmi-2" style="edgeStyle=orthogonalEdgeStyle;rounded=0;orthogonalLoop=1;jettySize=auto;html=1;exitX=0.5;exitY=1;exitDx=0;exitDy=0;entryX=0.5;entryY=0;entryDx=0;entryDy=0;" edge="1" parent="1" source="ku9lQlpiuaTnmv-eHWmi-4" target="ku9lQlpiuaTnmv-eHWmi-6">
          <mxGeometry relative="1" as="geometry" />
        </mxCell>
        <mxCell id="ku9lQlpiuaTnmv-eHWmi-3" value="加载" style="edgeLabel;html=1;align=center;verticalAlign=middle;resizable=0;points=[];" vertex="1" connectable="0" parent="ku9lQlpiuaTnmv-eHWmi-2">
          <mxGeometry x="-0.0571" y="-1" relative="1" as="geometry">
            <mxPoint as="offset" />
          </mxGeometry>
        </mxCell>
        <mxCell id="ku9lQlpiuaTnmv-eHWmi-4" value="spring.xml" style="rounded=0;whiteSpace=wrap;html=1;" vertex="1" parent="1">
          <mxGeometry x="80" y="30" width="120" height="50" as="geometry" />
        </mxCell>
        <mxCell id="ku9lQlpiuaTnmv-eHWmi-5" style="edgeStyle=orthogonalEdgeStyle;rounded=0;orthogonalLoop=1;jettySize=auto;html=1;exitX=1;exitY=0.5;exitDx=0;exitDy=0;entryX=0;entryY=0.5;entryDx=0;entryDy=0;" edge="1" parent="1" source="ku9lQlpiuaTnmv-eHWmi-6" target="ku9lQlpiuaTnmv-eHWmi-8">
          <mxGeometry relative="1" as="geometry" />
        </mxCell>
        <mxCell id="ku9lQlpiuaTnmv-eHWmi-6" value="Resource" style="rounded=0;whiteSpace=wrap;html=1;" vertex="1" parent="1">
          <mxGeometry x="80" y="150" width="120" height="50" as="geometry" />
        </mxCell>
        <mxCell id="ku9lQlpiuaTnmv-eHWmi-7" style="edgeStyle=orthogonalEdgeStyle;rounded=0;orthogonalLoop=1;jettySize=auto;html=1;exitX=1;exitY=0.5;exitDx=0;exitDy=0;entryX=0.5;entryY=0;entryDx=0;entryDy=0;" edge="1" parent="1" source="ku9lQlpiuaTnmv-eHWmi-8" target="ku9lQlpiuaTnmv-eHWmi-11">
          <mxGeometry relative="1" as="geometry" />
        </mxCell>
        <mxCell id="ku9lQlpiuaTnmv-eHWmi-8" value="BeanDefinitionReader" style="rounded=0;whiteSpace=wrap;html=1;" vertex="1" parent="1">
          <mxGeometry x="270" y="150" width="140" height="50" as="geometry" />
        </mxCell>
        <mxCell id="ku9lQlpiuaTnmv-eHWmi-9" value="" style="edgeStyle=orthogonalEdgeStyle;rounded=0;orthogonalLoop=1;jettySize=auto;html=1;" edge="1" parent="1" source="ku9lQlpiuaTnmv-eHWmi-11" target="ku9lQlpiuaTnmv-eHWmi-14">
          <mxGeometry relative="1" as="geometry" />
        </mxCell>
        <mxCell id="ku9lQlpiuaTnmv-eHWmi-10" value="注册" style="edgeLabel;html=1;align=center;verticalAlign=middle;resizable=0;points=[];" vertex="1" connectable="0" parent="ku9lQlpiuaTnmv-eHWmi-9">
          <mxGeometry x="-0.2" relative="1" as="geometry">
            <mxPoint as="offset" />
          </mxGeometry>
        </mxCell>
        <mxCell id="ku9lQlpiuaTnmv-eHWmi-11" value="BeanDefinitionRegistry" style="rounded=0;whiteSpace=wrap;html=1;" vertex="1" parent="1">
          <mxGeometry x="460" y="240" width="180" height="50" as="geometry" />
        </mxCell>
        <mxCell id="ku9lQlpiuaTnmv-eHWmi-12" style="edgeStyle=orthogonalEdgeStyle;rounded=0;orthogonalLoop=1;jettySize=auto;html=1;exitX=0.5;exitY=1;exitDx=0;exitDy=0;entryX=0.5;entryY=0;entryDx=0;entryDy=0;" edge="1" parent="1" source="ku9lQlpiuaTnmv-eHWmi-14" target="ku9lQlpiuaTnmv-eHWmi-15">
          <mxGeometry relative="1" as="geometry" />
        </mxCell>
        <mxCell id="ku9lQlpiuaTnmv-eHWmi-13" value="反射生成" style="edgeLabel;html=1;align=center;verticalAlign=middle;resizable=0;points=[];" vertex="1" connectable="0" parent="ku9lQlpiuaTnmv-eHWmi-12">
          <mxGeometry x="-0.0857" y="-4" relative="1" as="geometry">
            <mxPoint as="offset" />
          </mxGeometry>
        </mxCell>
        <mxCell id="ku9lQlpiuaTnmv-eHWmi-14" value="BeanDeinition" style="rounded=0;whiteSpace=wrap;html=1;" vertex="1" parent="1">
          <mxGeometry x="480" y="350" width="120" height="50" as="geometry" />
        </mxCell>
        <mxCell id="ku9lQlpiuaTnmv-eHWmi-15" value="Bean" style="rounded=0;whiteSpace=wrap;html=1;" vertex="1" parent="1">
          <mxGeometry x="480" y="470" width="120" height="50" as="geometry" />
        </mxCell>
        <mxCell id="ku9lQlpiuaTnmv-eHWmi-16" value="BeanDefinitionRegistryPostProccesor" style="rounded=0;whiteSpace=wrap;html=1;" vertex="1" parent="1">
          <mxGeometry x="90" y="240" width="250" height="50" as="geometry" />
        </mxCell>
        <mxCell id="ku9lQlpiuaTnmv-eHWmi-17" value="注册器" style="text;html=1;align=center;verticalAlign=middle;resizable=0;points=[];autosize=1;" vertex="1" parent="1">
          <mxGeometry x="445" y="160" width="50" height="20" as="geometry" />
        </mxCell>
        <mxCell id="ku9lQlpiuaTnmv-eHWmi-18" value="&lt;pre style=&quot;background-color: #2b2b2b ; color: #a9b7c6 ; font-family: &amp;#34;jetbrains mono&amp;#34; , monospace ; font-size: 10.5pt&quot;&gt;&lt;span style=&quot;color: #cc7832&quot;&gt; &lt;/span&gt;Map&lt;span style=&quot;color: #9876aa ; font-style: italic&quot;&gt;&amp;lt;&lt;/span&gt;String&lt;span style=&quot;color: #cc7832&quot;&gt;, &lt;/span&gt;BeanDefinition&lt;span style=&quot;color: #9876aa ; font-style: italic&quot;&gt;&amp;gt;&lt;/span&gt;&lt;/pre&gt;&lt;pre style=&quot;background-color: #2b2b2b ; color: #a9b7c6 ; font-family: &amp;#34;jetbrains mono&amp;#34; , monospace ; font-size: 10.5pt&quot;&gt;&lt;span style=&quot;color: #9876aa ; font-style: italic&quot;&gt; &lt;/span&gt;&lt;span style=&quot;color: #9876aa&quot;&gt;beanDefinitionMap&lt;/span&gt;&lt;/pre&gt;" style="text;html=1;strokeColor=none;fillColor=none;align=center;verticalAlign=middle;whiteSpace=wrap;rounded=0;" vertex="1" parent="1">
          <mxGeometry x="620" y="360" width="270" height="40" as="geometry" />
        </mxCell>
        <mxCell id="ku9lQlpiuaTnmv-eHWmi-19" value="&lt;pre style=&quot;background-color: #2b2b2b ; color: #a9b7c6 ; font-family: &amp;#34;jetbrains mono&amp;#34; , monospace ; font-size: 10.5pt&quot;&gt;Map&lt;span style=&quot;color: #9876aa ; font-style: italic&quot;&gt;&amp;lt;&lt;/span&gt;String&lt;span style=&quot;color: #cc7832&quot;&gt;, &lt;/span&gt;Object&lt;span style=&quot;color: #9876aa ; font-style: italic&quot;&gt;&amp;gt;&lt;/span&gt;&lt;/pre&gt;&lt;pre style=&quot;background-color: #2b2b2b ; color: #a9b7c6 ; font-family: &amp;#34;jetbrains mono&amp;#34; , monospace ; font-size: 10.5pt&quot;&gt;&lt;span style=&quot;color: #9876aa ; font-style: italic&quot;&gt; &lt;/span&gt;&lt;span style=&quot;color: #9876aa&quot;&gt;singletonObjects &lt;/span&gt;&lt;/pre&gt;" style="text;whiteSpace=wrap;html=1;" vertex="1" parent="1">
          <mxGeometry x="630" y="450" width="340" height="60" as="geometry" />
        </mxCell>
        <mxCell id="ku9lQlpiuaTnmv-eHWmi-25" value="装配" style="edgeStyle=orthogonalEdgeStyle;rounded=0;orthogonalLoop=1;jettySize=auto;html=1;exitX=0.5;exitY=1;exitDx=0;exitDy=0;" edge="1" parent="1" source="ku9lQlpiuaTnmv-eHWmi-20">
          <mxGeometry relative="1" as="geometry">
            <mxPoint x="210" y="730" as="targetPoint" />
          </mxGeometry>
        </mxCell>
        <mxCell id="ku9lQlpiuaTnmv-eHWmi-20" value="xml&lt;br&gt;@ImportSource&lt;br&gt;@Component+@ComponentScan&lt;br&gt;@Condiguration+@Bean&lt;br&gt;@Import&lt;br&gt;@Conditional&lt;br&gt;" style="rounded=0;whiteSpace=wrap;html=1;" vertex="1" parent="1">
          <mxGeometry x="110" y="540" width="200" height="110" as="geometry" />
        </mxCell>
        <mxCell id="ku9lQlpiuaTnmv-eHWmi-24" style="edgeStyle=orthogonalEdgeStyle;rounded=0;orthogonalLoop=1;jettySize=auto;html=1;exitX=1;exitY=0.5;exitDx=0;exitDy=0;" edge="1" parent="1" source="ku9lQlpiuaTnmv-eHWmi-21" target="ku9lQlpiuaTnmv-eHWmi-22">
          <mxGeometry relative="1" as="geometry" />
        </mxCell>
        <mxCell id="ku9lQlpiuaTnmv-eHWmi-26" value="解析" style="edgeLabel;html=1;align=center;verticalAlign=middle;resizable=0;points=[];" vertex="1" connectable="0" parent="ku9lQlpiuaTnmv-eHWmi-24">
          <mxGeometry x="-0.3116" y="-2" relative="1" as="geometry">
            <mxPoint as="offset" />
          </mxGeometry>
        </mxCell>
        <mxCell id="ku9lQlpiuaTnmv-eHWmi-21" value="xml&lt;br&gt;class" style="rounded=0;whiteSpace=wrap;html=1;" vertex="1" parent="1">
          <mxGeometry x="10" y="700" width="100" height="60" as="geometry" />
        </mxCell>
        <mxCell id="ku9lQlpiuaTnmv-eHWmi-31" style="edgeStyle=orthogonalEdgeStyle;rounded=0;orthogonalLoop=1;jettySize=auto;html=1;exitX=0.5;exitY=1;exitDx=0;exitDy=0;entryX=0.5;entryY=0;entryDx=0;entryDy=0;" edge="1" parent="1" source="ku9lQlpiuaTnmv-eHWmi-22" target="ku9lQlpiuaTnmv-eHWmi-28">
          <mxGeometry relative="1" as="geometry" />
        </mxCell>
        <mxCell id="ku9lQlpiuaTnmv-eHWmi-35" value="new" style="edgeLabel;html=1;align=center;verticalAlign=middle;resizable=0;points=[];" vertex="1" connectable="0" parent="ku9lQlpiuaTnmv-eHWmi-31">
          <mxGeometry x="-0.1833" y="-2" relative="1" as="geometry">
            <mxPoint as="offset" />
          </mxGeometry>
        </mxCell>
        <mxCell id="ku9lQlpiuaTnmv-eHWmi-46" style="edgeStyle=orthogonalEdgeStyle;rounded=0;orthogonalLoop=1;jettySize=auto;html=1;" edge="1" parent="1" source="ku9lQlpiuaTnmv-eHWmi-22">
          <mxGeometry relative="1" as="geometry">
            <mxPoint x="730" y="730" as="targetPoint" />
          </mxGeometry>
        </mxCell>
        <mxCell id="ku9lQlpiuaTnmv-eHWmi-22" value="BeanDefinition" style="rounded=0;whiteSpace=wrap;html=1;" vertex="1" parent="1">
          <mxGeometry x="294" y="700" width="120" height="60" as="geometry" />
        </mxCell>
        <mxCell id="ku9lQlpiuaTnmv-eHWmi-27" value="Bean" style="rounded=0;whiteSpace=wrap;html=1;" vertex="1" parent="1">
          <mxGeometry x="740" y="690" width="120" height="60" as="geometry" />
        </mxCell>
        <mxCell id="ku9lQlpiuaTnmv-eHWmi-32" style="edgeStyle=orthogonalEdgeStyle;rounded=0;orthogonalLoop=1;jettySize=auto;html=1;exitX=1;exitY=0.5;exitDx=0;exitDy=0;entryX=0;entryY=0.5;entryDx=0;entryDy=0;" edge="1" parent="1" source="ku9lQlpiuaTnmv-eHWmi-28" target="ku9lQlpiuaTnmv-eHWmi-29">
          <mxGeometry relative="1" as="geometry">
            <mxPoint x="490" y="850.3333333333335" as="targetPoint" />
          </mxGeometry>
        </mxCell>
        <mxCell id="ku9lQlpiuaTnmv-eHWmi-36" value="填充属性" style="edgeLabel;html=1;align=center;verticalAlign=middle;resizable=0;points=[];" vertex="1" connectable="0" parent="ku9lQlpiuaTnmv-eHWmi-32">
          <mxGeometry x="-0.0082" y="1" relative="1" as="geometry">
            <mxPoint as="offset" />
          </mxGeometry>
        </mxCell>
        <mxCell id="ku9lQlpiuaTnmv-eHWmi-28" value="createBeanInstance" style="rounded=0;whiteSpace=wrap;html=1;" vertex="1" parent="1">
          <mxGeometry x="294" y="820" width="120" height="60" as="geometry" />
        </mxCell>
        <mxCell id="ku9lQlpiuaTnmv-eHWmi-34" style="edgeStyle=orthogonalEdgeStyle;rounded=0;orthogonalLoop=1;jettySize=auto;html=1;exitX=1;exitY=0.5;exitDx=0;exitDy=0;entryX=0;entryY=0.5;entryDx=0;entryDy=0;" edge="1" parent="1" source="ku9lQlpiuaTnmv-eHWmi-29" target="ku9lQlpiuaTnmv-eHWmi-30">
          <mxGeometry relative="1" as="geometry" />
        </mxCell>
        <mxCell id="ku9lQlpiuaTnmv-eHWmi-37" value="初始化" style="edgeLabel;html=1;align=center;verticalAlign=middle;resizable=0;points=[];" vertex="1" connectable="0" parent="ku9lQlpiuaTnmv-eHWmi-34">
          <mxGeometry x="-0.1449" y="2" relative="1" as="geometry">
            <mxPoint as="offset" />
          </mxGeometry>
        </mxCell>
        <mxCell id="ku9lQlpiuaTnmv-eHWmi-29" value="populateBean" style="rounded=0;whiteSpace=wrap;html=1;" vertex="1" parent="1">
          <mxGeometry x="495" y="820" width="120" height="60" as="geometry" />
        </mxCell>
        <mxCell id="ku9lQlpiuaTnmv-eHWmi-48" style="edgeStyle=orthogonalEdgeStyle;rounded=0;orthogonalLoop=1;jettySize=auto;html=1;exitX=0.5;exitY=0;exitDx=0;exitDy=0;entryX=0.417;entryY=1.019;entryDx=0;entryDy=0;entryPerimeter=0;" edge="1" parent="1" source="ku9lQlpiuaTnmv-eHWmi-30" target="ku9lQlpiuaTnmv-eHWmi-27">
          <mxGeometry relative="1" as="geometry" />
        </mxCell>
        <mxCell id="ku9lQlpiuaTnmv-eHWmi-30" value="initiallizeBean" style="rounded=0;whiteSpace=wrap;html=1;" vertex="1" parent="1">
          <mxGeometry x="730" y="820" width="120" height="60" as="geometry" />
        </mxCell>
        <mxCell id="ku9lQlpiuaTnmv-eHWmi-38" value="依赖注入" style="text;html=1;align=center;verticalAlign=middle;resizable=0;points=[];autosize=1;" vertex="1" parent="1">
          <mxGeometry x="495" y="890" width="60" height="20" as="geometry" />
        </mxCell>
        <mxCell id="ku9lQlpiuaTnmv-eHWmi-42" value="field setter" style="text;html=1;align=center;verticalAlign=middle;resizable=0;points=[];autosize=1;" vertex="1" parent="1">
          <mxGeometry x="495" y="910" width="70" height="20" as="geometry" />
        </mxCell>
        <mxCell id="ku9lQlpiuaTnmv-eHWmi-43" value="依赖注入&lt;br&gt;contructor" style="text;html=1;align=center;verticalAlign=middle;resizable=0;points=[];autosize=1;" vertex="1" parent="1">
          <mxGeometry x="285" y="895" width="70" height="30" as="geometry" />
        </mxCell>
        <mxCell id="ku9lQlpiuaTnmv-eHWmi-44" value="AOP" style="text;html=1;align=center;verticalAlign=middle;resizable=0;points=[];autosize=1;" vertex="1" parent="1">
          <mxGeometry x="730" y="890" width="40" height="20" as="geometry" />
        </mxCell>
        <mxCell id="ku9lQlpiuaTnmv-eHWmi-45" value="DefaultListableBeanFactory#doCreateBean" style="text;html=1;align=center;verticalAlign=middle;resizable=0;points=[];autosize=1;" vertex="1" parent="1">
          <mxGeometry x="410" y="780" width="250" height="20" as="geometry" />
        </mxCell>
        <mxCell id="ku9lQlpiuaTnmv-eHWmi-47" value="构建" style="text;html=1;align=center;verticalAlign=middle;resizable=0;points=[];autosize=1;" vertex="1" parent="1">
          <mxGeometry x="540" y="710" width="40" height="20" as="geometry" />
        </mxCell>
        <mxCell id="ku9lQlpiuaTnmv-eHWmi-49" value="判断FactoryBean" style="text;html=1;align=center;verticalAlign=middle;resizable=0;points=[];autosize=1;" vertex="1" parent="1">
          <mxGeometry x="755" y="770" width="110" height="20" as="geometry" />
        </mxCell>
        <mxCell id="ku9lQlpiuaTnmv-eHWmi-57" style="edgeStyle=orthogonalEdgeStyle;rounded=0;orthogonalLoop=1;jettySize=auto;html=1;exitX=0.5;exitY=1;exitDx=0;exitDy=0;entryX=0.5;entryY=0;entryDx=0;entryDy=0;" edge="1" parent="1" source="ku9lQlpiuaTnmv-eHWmi-51" target="ku9lQlpiuaTnmv-eHWmi-52">
          <mxGeometry relative="1" as="geometry" />
        </mxCell>
        <mxCell id="ku9lQlpiuaTnmv-eHWmi-51" value="MyFactoryBean" style="rounded=0;whiteSpace=wrap;html=1;" vertex="1" parent="1">
          <mxGeometry x="80" y="970" width="110" height="40" as="geometry" />
        </mxCell>
        <mxCell id="ku9lQlpiuaTnmv-eHWmi-52" value="new User" style="rounded=0;whiteSpace=wrap;html=1;" vertex="1" parent="1">
          <mxGeometry x="80" y="1060" width="110" height="40" as="geometry" />
        </mxCell>
        <mxCell id="ku9lQlpiuaTnmv-eHWmi-55" style="edgeStyle=orthogonalEdgeStyle;rounded=0;orthogonalLoop=1;jettySize=auto;html=1;exitX=1;exitY=0.5;exitDx=0;exitDy=0;entryX=0.5;entryY=1;entryDx=0;entryDy=0;" edge="1" parent="1" source="ku9lQlpiuaTnmv-eHWmi-53" target="ku9lQlpiuaTnmv-eHWmi-52">
          <mxGeometry relative="1" as="geometry" />
        </mxCell>
        <mxCell id="ku9lQlpiuaTnmv-eHWmi-53" value="UserService" style="rounded=0;whiteSpace=wrap;html=1;" vertex="1" parent="1">
          <mxGeometry x="-80" y="1150" width="110" height="40" as="geometry" />
        </mxCell>
        <mxCell id="ku9lQlpiuaTnmv-eHWmi-54" value="FactoryBean" style="text;html=1;align=center;verticalAlign=middle;resizable=0;points=[];autosize=1;" vertex="1" parent="1">
          <mxGeometry x="90" y="940" width="80" height="20" as="geometry" />
        </mxCell>
        <mxCell id="ku9lQlpiuaTnmv-eHWmi-56" value="属性User" style="text;html=1;align=center;verticalAlign=middle;resizable=0;points=[];autosize=1;" vertex="1" parent="1">
          <mxGeometry x="60" y="1170" width="60" height="20" as="geometry" />
        </mxCell>
        <mxCell id="ku9lQlpiuaTnmv-eHWmi-58" value="getObject" style="text;html=1;align=center;verticalAlign=middle;resizable=0;points=[];autosize=1;" vertex="1" parent="1">
          <mxGeometry x="85" y="1020" width="70" height="20" as="geometry" />
        </mxCell>
        <mxCell id="ku9lQlpiuaTnmv-eHWmi-59" value="" style="endArrow=classic;html=1;" edge="1" parent="1">
          <mxGeometry width="50" height="50" relative="1" as="geometry">
            <mxPoint x="170" y="1170" as="sourcePoint" />
            <mxPoint x="340" y="1170" as="targetPoint" />
          </mxGeometry>
        </mxCell>
        <mxCell id="ku9lQlpiuaTnmv-eHWmi-60" value="allBeanNamesByType" style="text;html=1;align=center;verticalAlign=middle;resizable=0;points=[];autosize=1;" vertex="1" parent="1">
          <mxGeometry x="180" y="1140" width="130" height="20" as="geometry" />
        </mxCell>
        <mxCell id="ku9lQlpiuaTnmv-eHWmi-61" value="myFactoryBean" style="text;html=1;align=center;verticalAlign=middle;resizable=0;points=[];autosize=1;" vertex="1" parent="1">
          <mxGeometry x="344" y="1160" width="100" height="20" as="geometry" />
        </mxCell>
        <mxCell id="ku9lQlpiuaTnmv-eHWmi-62" value="FactoryBeanObjectCache" style="text;html=1;align=center;verticalAlign=middle;resizable=0;points=[];autosize=1;" vertex="1" parent="1">
          <mxGeometry x="220" y="1070" width="150" height="20" as="geometry" />
        </mxCell>
        <mxCell id="ku9lQlpiuaTnmv-eHWmi-64" value="context.getBean(&quot;myFactoryBean&quot;)" style="text;html=1;align=center;verticalAlign=middle;resizable=0;points=[];autosize=1;" vertex="1" parent="1">
          <mxGeometry x="390" y="1070" width="200" height="20" as="geometry" />
        </mxCell>
        <mxCell id="ku9lQlpiuaTnmv-eHWmi-65" value="singletonObjects" style="text;html=1;align=center;verticalAlign=middle;resizable=0;points=[];autosize=1;" vertex="1" parent="1">
          <mxGeometry x="220" y="980" width="100" height="20" as="geometry" />
        </mxCell>
        <mxCell id="ku9lQlpiuaTnmv-eHWmi-66" value="context.getBean(&quot;&amp;amp;myFactoryBean&quot;)" style="text;html=1;align=center;verticalAlign=middle;resizable=0;points=[];autosize=1;" vertex="1" parent="1">
          <mxGeometry x="385" y="980" width="210" height="20" as="geometry" />
        </mxCell>
      </root>
    </mxGraphModel>
  </diagram>
</mxfile>
